<?xml version="1.0" standalone="no"?>
<!DOCTYPE svg PUBLIC "-//W3C//DTD SVG 20010904//EN"
 "http://www.w3.org/TR/2001/REC-SVG-20010904/DTD/svg10.dtd">
<svg version="1.0" xmlns="http://www.w3.org/2000/svg"
 width="360.000000pt" height="362.000000pt" viewBox="0 0 360.000000 362.000000"
 preserveAspectRatio="xMidYMid meet">

<g transform="translate(0.000000,362.000000) scale(0.100000,-0.100000)"
fill="#dccca3" stroke="none">
<path d="M1457 3474 c-343 -53 -633 -198 -894 -448 -207 -197 -343 -399 -446
-663 -75 -189 -107 -336 -114 -528 -17 -442 134 -837 448 -1169 367 -387 950
-603 1507 -557 323 26 582 111 827 271 231 151 481 416 729 773 37 53 72 97
77 97 5 0 9 226 9 566 l0 565 -57 77 c-406 553 -874 889 -1378 991 -206 42
-529 53 -708 25z m548 -584 c438 -82 788 -355 1162 -908 l97 -142 -18 -33
c-56 -97 -296 -447 -372 -542 -117 -144 -280 -313 -364 -375 -184 -137 -475
-218 -735 -207 -360 17 -684 153 -910 383 -118 120 -219 306 -266 491 -30 120
-24 321 14 465 73 278 262 549 494 706 123 84 278 150 401 172 62 11 421 4
497 -10z"/>
<path d="M1190 1850 l0 -120 595 0 595 0 0 120 0 120 -595 0 -595 0 0 -120z"/>
</g>
</svg>
