<?xml version="1.0" standalone="no"?>
<!DOCTYPE svg PUBLIC "-//W3C//DTD SVG 20010904//EN"
 "http://www.w3.org/TR/2001/REC-SVG-20010904/DTD/svg10.dtd">
<svg version="1.0" xmlns="http://www.w3.org/2000/svg"
 width="559.000000pt" height="446.000000pt" viewBox="0 0 559.000000 446.000000"
 preserveAspectRatio="xMidYMid meet">

<g transform="translate(0.000000,446.000000) scale(0.100000,-0.100000)"
fill="#dccca3" stroke="none">
<path d="M2772 4297 c-5 -7 -40 -68 -77 -137 -97 -179 -380 -710 -433 -810
-24 -47 -57 -107 -72 -135 -15 -27 -53 -99 -85 -160 -132 -248 -119 -229 -168
-236 -58 -9 -101 -32 -129 -70 -20 -26 -23 -28 -30 -12 -6 17 -7 17 -7 1 -1
-23 -6 -22 -40 3 -22 16 -39 19 -87 17 -72 -4 -84 -26 -32 -58 44 -27 153 -27
239 0 35 10 65 17 67 15 7 -7 -82 -164 -90 -159 -16 10 -8 -72 10 -101 10 -16
54 -97 97 -180 43 -82 86 -164 95 -180 23 -40 84 -156 150 -280 29 -55 70
-131 90 -170 21 -38 124 -232 230 -430 106 -198 203 -379 216 -402 32 -55 31
-68 -13 -122 -121 -151 -266 -248 -448 -302 -69 -21 -101 -24 -235 -24 -180 1
-234 12 -374 82 -131 64 -207 130 -285 246 -73 108 -118 277 -108 407 21 250
150 443 358 531 62 27 90 33 177 37 116 5 162 -4 260 -50 75 -36 167 -120 200
-184 50 -98 64 -220 36 -315 -38 -126 -96 -198 -199 -245 -82 -38 -196 -40
-269 -4 -131 63 -193 176 -166 305 36 171 217 239 352 132 21 -17 48 -78 48
-108 0 -18 -4 -20 -26 -15 -40 10 -74 -17 -74 -58 0 -62 65 -81 108 -31 22 26
24 36 20 101 -3 63 -7 77 -34 110 -44 55 -105 84 -174 84 -105 0 -181 -45
-228 -134 -23 -44 -27 -63 -27 -136 0 -73 4 -92 27 -136 33 -62 84 -108 158
-143 48 -22 68 -26 150 -25 116 1 180 26 257 101 89 87 129 204 120 351 -4 70
-11 96 -41 156 -44 91 -97 151 -170 195 -60 36 -176 80 -213 81 -12 0 -24 6
-26 13 -4 10 -6 10 -6 0 -1 -9 -24 -13 -79 -13 -272 0 -499 -207 -557 -510
-26 -134 -13 -270 40 -399 69 -167 180 -286 350 -373 365 -186 809 -94 1081
225 62 72 80 78 117 34 204 -238 425 -346 708 -347 374 0 685 220 775 550 23
85 24 281 2 360 -37 129 -110 255 -185 317 -115 96 -200 132 -326 140 l-89 6
6 36 5 36 -13 -35 c-12 -32 -17 -36 -66 -43 -121 -17 -253 -94 -320 -186 -74
-101 -94 -160 -95 -276 0 -89 3 -109 30 -175 41 -101 123 -185 214 -220 168
-62 357 -1 436 141 27 49 30 63 30 144 -1 104 -19 150 -81 205 -51 45 -99 63
-166 63 -117 1 -205 -77 -214 -189 -7 -80 16 -128 64 -132 64 -6 95 55 50 98
-17 16 -31 20 -55 16 -37 -5 -39 0 -23 53 30 107 172 154 281 94 143 -77 159
-286 32 -405 -56 -52 -111 -73 -205 -76 -80 -4 -93 -1 -151 26 -78 36 -128 84
-166 160 -82 164 -48 369 84 496 95 92 210 136 358 136 211 0 391 -116 485
-311 71 -147 88 -295 52 -446 -64 -267 -245 -444 -545 -530 -86 -24 -304 -24
-405 1 -170 42 -346 152 -453 283 l-59 72 57 108 c32 59 74 137 93 173 19 36
55 103 80 150 24 47 60 114 80 150 19 36 57 108 85 160 27 52 78 147 112 210
66 123 120 224 205 385 29 55 56 105 60 110 19 27 170 325 170 335 0 7 -6 18
-13 24 -8 6 -35 51 -61 100 -36 67 -43 87 -29 81 10 -4 44 -17 76 -28 44 -15
57 -24 58 -41 0 -20 1 -20 9 2 8 20 16 22 77 22 40 0 80 6 96 15 l27 14 -7
-67 c-16 -133 -1 -203 49 -243 20 -16 20 -17 -26 -79 -25 -35 -46 -68 -46 -72
0 -4 -4 -8 -10 -8 -5 0 -10 11 -10 25 0 37 -37 109 -81 157 l-38 43 -1 -62 c0
-94 18 -158 56 -195 27 -26 31 -36 23 -53 -9 -18 -9 -19 4 -3 13 17 17 16 66
-4 51 -22 52 -22 118 -4 77 20 157 57 155 70 -3 33 -200 48 -254 20 -29 -15
-30 -15 -25 1 8 19 95 143 106 150 5 2 25 -5 47 -15 21 -11 51 -20 66 -20 39
0 182 47 209 69 l22 18 -34 12 c-60 22 -190 26 -227 7 -39 -20 -48 -20 -32 -1
9 10 9 15 1 15 -6 0 -11 18 -11 43 0 47 -29 146 -60 207 -22 43 -34 50 -44 24
-5 -14 -7 -14 -22 0 -21 22 -82 20 -129 -4 -48 -24 -45 -25 -46 3 -1 21 -2 19
-15 -22 -3 -10 -11 -5 -24 17 -30 49 -117 87 -160 68 -16 -6 -21 1 -110 169
-23 44 -50 94 -60 110 -10 17 -48 89 -85 160 -37 72 -80 153 -95 180 -52 93
-92 170 -147 275 -31 58 -70 132 -88 165 -18 33 -70 130 -116 215 -46 85 -90
169 -98 187 -17 36 -35 47 -49 30z m58 -307 c17 -85 35 -171 41 -191 5 -20 24
-110 43 -200 19 -90 53 -247 76 -349 22 -102 47 -213 54 -247 l14 -63 -270 0
-270 0 7 43 c6 38 41 197 111 517 14 63 32 144 39 180 8 36 26 119 40 185 24
109 48 219 61 285 9 40 19 9 54 -160z m150 -105 c0 -4 279 -527 320 -600 15
-27 52 -97 83 -155 107 -205 145 -276 199 -375 83 -151 83 -158 0 -89 -275
232 -300 257 -320 314 -11 30 -52 147 -91 260 -38 113 -95 277 -126 365 -31
88 -63 178 -70 200 -7 22 -25 73 -39 113 -14 41 -26 77 -26 80 0 3 16 -20 35
-52 19 -32 35 -60 35 -61z m-361 -16 c-22 -63 -54 -152 -70 -199 -15 -47 -51
-150 -79 -230 -46 -129 -170 -493 -170 -496 0 -5 -47 -50 -110 -104 -41 -36
-88 -77 -105 -91 -97 -85 -160 -137 -164 -134 -2 2 21 50 52 107 30 57 103
192 161 301 58 109 106 199 106 202 0 2 17 34 38 72 22 37 65 118 97 178 32
61 74 139 93 175 19 36 54 101 77 145 23 44 51 96 62 115 11 19 25 46 32 58
27 51 19 10 -20 -99z m51 -24 c-13 -58 -53 -242 -100 -460 -51 -237 -91 -416
-96 -432 -2 -9 -25 -13 -68 -13 l-64 0 18 58 c11 31 51 149 90 262 39 113 82
237 95 275 22 64 108 311 120 344 11 28 14 4 5 -34z m283 -100 c45 -124 250
-719 263 -762 l13 -43 -64 0 -64 0 -10 38 c-5 20 -17 71 -25 112 -15 71 -24
113 -81 375 -107 488 -107 489 -32 280z m-493 -862 c0 -37 -15 -45 -43 -23
-36 29 -34 40 8 40 27 0 35 -4 35 -17z m610 -9 c20 -51 13 -69 -47 -115 -181
-140 -233 -179 -238 -179 -5 0 -91 66 -237 180 -60 47 -67 64 -48 114 l10 26
275 0 275 0 10 -26z m120 18 c0 -5 -14 -19 -31 -31 -33 -25 -49 -18 -49 22 0
13 9 17 40 17 22 0 40 -4 40 -8z m-770 -87 c20 -22 21 -25 6 -81 -8 -33 -19
-84 -26 -115 l-11 -56 -137 -7 c-75 -3 -186 -9 -247 -12 l-110 -6 50 45 c73
65 294 258 333 290 l34 27 43 -31 c24 -18 54 -42 65 -54z m1039 -84 c74 -64
153 -133 175 -154 l41 -38 -105 5 c-58 3 -167 9 -243 12 -160 8 -143 -6 -175
145 l-20 94 36 33 c21 19 50 42 66 52 34 22 8 40 225 -149z m-743 -149 c-6 -5
-269 -21 -277 -16 -5 3 24 160 36 192 3 8 47 -20 125 -79 66 -51 118 -94 116
-97z m389 156 c3 -18 13 -64 22 -101 8 -37 14 -70 11 -72 -5 -5 -278 12 -284
18 -4 4 225 184 238 186 3 1 9 -14 13 -31z m-385 -206 c0 -5 -33 -39 -72 -77
-40 -37 -121 -115 -180 -173 -60 -58 -110 -103 -113 -101 -7 7 61 329 72 340
4 4 60 10 123 12 63 1 127 4 143 5 15 1 27 -2 27 -6z m423 -12 c14 -12 83
-327 74 -337 -4 -3 -69 54 -145 129 -75 74 -156 152 -179 173 -24 21 -43 41
-43 45 0 9 283 0 293 -10z m-323 -17 c14 -16 105 -104 203 -197 97 -94 177
-174 177 -178 0 -4 -187 -8 -415 -8 -228 0 -415 4 -415 8 0 4 44 49 98 100 53
50 144 138 202 196 58 57 110 104 115 105 6 1 22 -11 35 -26z m-445 -5 c-3
-13 -19 -86 -35 -163 -17 -77 -33 -150 -35 -162 -3 -13 -9 -23 -13 -23 -4 0
-41 30 -83 68 -41 37 -128 112 -192 166 -64 55 -117 103 -117 108 0 4 24 9 53
9 28 1 106 5 172 9 66 3 150 7 188 8 65 2 67 1 62 -20z m1224 3 l84 -6 -169
-147 c-226 -196 -228 -198 -235 -198 -6 0 -17 45 -55 220 -13 63 -27 123 -30
133 -6 18 1 18 158 12 89 -4 201 -10 247 -14z m-1619 -137 c128 -115 270 -238
286 -247 21 -12 36 -48 92 -212 29 -82 77 -222 107 -310 31 -88 71 -205 90
-260 18 -55 50 -145 69 -199 33 -91 42 -134 18 -89 -6 10 -21 38 -34 63 -14
25 -40 74 -60 110 -19 36 -63 119 -98 185 -35 66 -73 138 -85 160 -62 115
-113 211 -222 415 -66 124 -143 268 -172 321 -28 53 -51 99 -51 103 0 10 19
-2 60 -40z m1613 -76 c-68 -129 -153 -290 -193 -363 -15 -27 -53 -99 -85 -160
-32 -60 -66 -123 -75 -140 -10 -16 -76 -140 -148 -275 -131 -248 -182 -339
-182 -330 0 9 28 93 70 210 23 63 52 147 65 185 48 146 228 660 234 671 12 21
364 324 369 319 2 -2 -23 -54 -55 -117z m-1100 -370 c21 -90 53 -230 73 -313
19 -82 39 -171 44 -197 5 -26 18 -83 30 -126 20 -79 25 -110 15 -101 -5 6 -73
193 -114 319 -16 47 -67 196 -115 333 l-85 247 57 0 58 0 37 -162z m577 155
c0 -5 -16 -78 -35 -163 -20 -85 -44 -191 -54 -235 -10 -44 -50 -222 -90 -395
-108 -476 -105 -464 -115 -419 -3 13 -40 175 -82 359 -42 184 -82 362 -90 395
-7 33 -33 150 -59 260 -25 110 -45 201 -45 202 0 2 128 3 285 3 157 0 285 -3
285 -7z m144 -42 c-8 -27 -26 -80 -40 -118 -14 -37 -38 -106 -54 -153 -36
-109 -166 -480 -191 -545 -29 -76 -20 -32 66 340 8 33 25 107 38 165 13 58 37
162 53 232 l29 128 57 0 57 0 -15 -49z"/>
<path d="M1750 3498 c-24 -40 -25 -86 -4 -136 l15 -37 34 37 c42 45 51 78 36
129 -16 52 -52 55 -81 7z"/>
<path d="M3762 3485 c-23 -50 -15 -90 27 -139 l39 -45 17 55 c19 61 14 97 -17
132 -28 29 -52 28 -66 -3z"/>
<path d="M1548 3326 c-10 -7 -18 -25 -18 -39 0 -27 -1 -26 150 -79 70 -25 85
-23 191 19 43 18 92 60 86 76 -12 38 -115 2 -174 -60 -29 -32 -33 -33 -33 -14
0 23 -24 51 -77 87 -40 27 -97 31 -125 10z"/>
<path d="M1752 3295 c0 -16 2 -22 5 -12 2 9 2 23 0 30 -3 6 -5 -1 -5 -18z"/>
<path d="M3915 3301 c-16 -10 -39 -28 -50 -41 l-20 -22 -7 24 c-5 15 -6 9 -4
-19 2 -24 2 -43 0 -43 -3 0 -21 16 -41 36 -33 34 -109 74 -138 74 -20 0 -27
-17 -16 -39 15 -27 73 -61 139 -80 44 -13 58 -22 63 -41 l7 -25 1 26 c1 23 9
28 86 53 47 15 95 36 107 46 21 17 21 18 5 44 -14 21 -25 26 -60 26 -23 0 -55
-8 -72 -19z"/>
<path d="M1849 3130 c-20 -11 -51 -38 -69 -60 -25 -31 -35 -38 -41 -28 -5 7
-9 10 -9 6 0 -5 -18 10 -39 31 -64 64 -167 66 -159 3 4 -37 49 -59 138 -70 68
-8 82 -7 145 16 38 14 80 32 92 41 25 18 46 58 38 72 -10 15 -57 9 -96 -11z"/>
<path d="M3644 3125 c-14 -37 72 -100 163 -120 30 -6 32 -10 36 -53 l3 -47 2
46 2 46 72 6 c78 7 121 29 126 65 2 13 -6 27 -22 37 -34 23 -85 6 -143 -48
l-44 -40 -36 43 c-54 63 -146 100 -159 65z"/>
<path d="M1844 2966 c-17 -8 -44 -30 -60 -50 l-29 -36 -6 27 -7 28 -1 -28 -1
-28 -40 32 c-49 40 -136 53 -160 24 -31 -38 29 -76 135 -84 l69 -6 13 -45 12
-45 -5 43 -6 42 64 29 c93 42 134 89 92 105 -22 9 -35 7 -70 -8z"/>
<path d="M3673 2964 c-18 -8 -16 -25 5 -50 18 -21 162 -95 162 -83 0 3 30 8
68 11 69 5 129 28 139 54 9 24 -17 44 -59 44 -34 0 -63 -11 -141 -57 -18 -10
-23 -7 -41 20 -29 43 -100 75 -133 61z"/>
<path d="M4189 2933 c-37 -99 -49 -221 -25 -277 16 -38 55 -78 68 -70 4 3 24
-4 43 -16 49 -30 132 -29 217 4 79 29 128 54 128 64 0 29 -244 57 -288 33 -30
-16 -28 -6 11 39 29 36 37 40 78 40 29 0 61 8 87 23 60 33 158 154 139 173 -7
8 -99 -22 -158 -52 -51 -25 -109 -85 -109 -112 0 -18 -85 -122 -100 -122 -5 0
-4 15 1 32 6 22 5 54 -2 93 -13 66 -56 175 -71 175 -4 0 -13 -12 -19 -27z"/>
<path d="M1342 2903 c-35 -76 -54 -175 -43 -224 l9 -41 -36 33 c-20 19 -29 25
-19 13 22 -27 22 -37 -2 -24 -44 23 -252 3 -283 -28 -12 -12 99 -65 181 -87
69 -18 107 -14 160 16 18 11 34 19 36 17 1 -2 25 -32 55 -68 50 -61 54 -84 11
-61 -39 21 -215 7 -245 -20 -13 -12 101 -63 173 -79 58 -12 63 -11 110 12 l49
24 56 -80 c31 -43 55 -80 53 -82 -1 -2 -23 4 -47 12 -31 11 -62 14 -99 10 -73
-9 -141 -26 -141 -37 0 -23 159 -79 224 -79 41 0 99 25 138 59 36 32 54 81 63
174 7 74 6 79 -11 75 -25 -4 -90 -101 -107 -157 l-13 -44 -48 67 -47 67 30 34
c16 19 33 51 37 71 15 79 -15 279 -40 271 -22 -7 -79 -161 -85 -227 l-6 -65
-47 58 -48 59 33 40 c31 38 32 44 30 122 -1 83 -30 207 -49 213 -6 2 -20 -18
-32 -44z"/>
<path d="M945 2900 c22 -43 102 -128 137 -146 15 -8 49 -14 76 -14 35 0 52 -4
56 -15 3 -8 11 -15 17 -15 7 0 3 10 -9 23 -12 13 -22 31 -22 40 0 50 -131 137
-230 153 l-42 7 17 -33z"/>
<path d="M3822 2790 c0 -14 2 -19 5 -12 2 6 2 18 0 25 -3 6 -5 1 -5 -13z"/>
<path d="M1791 2650 c0 -8 6 -28 14 -45 17 -39 18 -21 0 25 -7 19 -14 28 -14
20z"/>
<path d="M3781 2623 c-1 -6 -4 -20 -7 -30 -5 -17 -5 -17 6 0 6 10 9 23 6 30
-3 9 -5 9 -5 0z"/>
<path d="M4189 2543 c-36 -41 -56 -68 -42 -60 13 8 77 87 71 87 -2 0 -15 -12
-29 -27z"/>
<path d="M1837 2253 c-26 -29 -87 -168 -88 -200 0 -27 -1 -27 -14 -8 -35 50
-44 56 -21 14 14 -25 26 -48 26 -51 0 -4 -17 2 -37 12 -69 32 -223 54 -223 31
0 -16 93 -92 145 -118 41 -21 59 -25 106 -20 56 5 58 4 70 -24 6 -16 14 -28
16 -26 2 3 -2 16 -8 31 -11 24 -10 28 9 42 45 31 57 71 56 184 -1 58 -6 115
-11 128 -9 22 -9 23 -26 5z"/>
<path d="M3710 2245 c-6 -15 -11 -69 -11 -119 -1 -101 12 -146 54 -185 15 -13
24 -29 21 -35 -3 -6 1 -3 8 6 10 11 19 14 29 7 26 -16 89 -9 137 16 67 35 122
76 141 104 l15 24 -84 -5 c-57 -3 -101 -12 -132 -26 l-48 -21 -21 72 c-24 81
-60 157 -83 176 -13 11 -17 9 -26 -14z"/>
<path d="M1670 2130 c6 -11 13 -20 16 -20 2 0 0 9 -6 20 -6 11 -13 20 -16 20
-2 0 0 -9 6 -20z"/>
<path d="M3866 2086 c-36 -62 -33 -71 5 -12 16 27 28 50 26 53 -3 2 -16 -16
-31 -41z"/>
<path d="M3752 1861 c-6 -17 -9 -31 -6 -31 7 0 25 52 20 57 -2 2 -8 -10 -14
-26z"/>
<path d="M1827 1830 c3 -14 14 -43 24 -65 11 -22 16 -29 13 -15 -3 14 -15 43
-25 65 -10 22 -16 29 -12 15z"/>
<path d="M3726 1805 c-9 -26 -7 -32 5 -12 6 10 9 21 6 23 -2 3 -7 -2 -11 -11z"/>
</g>
</svg>
