<?xml version="1.0" standalone="no"?>
<!DOCTYPE svg PUBLIC "-//W3C//DTD SVG 20010904//EN"
 "http://www.w3.org/TR/2001/REC-SVG-20010904/DTD/svg10.dtd">
<svg version="1.0" xmlns="http://www.w3.org/2000/svg"
 width="361.000000pt" height="363.000000pt" viewBox="0 0 361.000000 363.000000"
 preserveAspectRatio="xMidYMid meet">

<g transform="translate(0.000000,363.000000) scale(0.100000,-0.100000)"
fill="#dccca3" stroke="none">
<path d="M1600 3493 c-89 -9 -262 -47 -358 -79 -410 -133 -793 -446 -1156
-942 -37 -50 -72 -90 -77 -86 -5 3 -9 -222 -9 -563 l0 -569 69 -102 c154 -227
345 -440 526 -587 540 -439 1198 -590 1760 -404 384 127 736 399 969 748 291
436 365 962 201 1421 -196 546 -704 978 -1317 1120 -182 41 -445 60 -608 43z
m475 -607 c275 -69 497 -194 672 -379 194 -205 283 -422 283 -690 0 -129 -19
-231 -67 -352 -69 -177 -154 -306 -292 -442 -316 -312 -707 -428 -1091 -323
-328 90 -499 189 -746 435 -188 187 -335 389 -449 615 l-36 72 73 114 c108
170 265 375 378 496 203 217 467 396 660 448 172 47 441 50 615 6z"/>
<path d="M1608 2173 l-3 -168 -162 -3 -163 -2 0 -155 0 -155 165 0 165 0 0
-170 0 -170 155 0 155 0 2 168 3 167 173 3 172 2 0 155 0 155 -172 2 -173 3
-3 168 -2 167 -155 0 -155 0 -2 -167z"/>
</g>
</svg>
